<?xml version="1.0" standalone="no"?>
<!DOCTYPE svg PUBLIC "-//W3C//DTD SVG 20010904//EN"
 "http://www.w3.org/TR/2001/REC-SVG-20010904/DTD/svg10.dtd">
<svg version="1.0" xmlns="http://www.w3.org/2000/svg"
 width="675.000000pt" height="675.000000pt" viewBox="0 0 675.000000 675.000000"
 preserveAspectRatio="xMidYMid meet">
<metadata>
Created by potrace 1.14, written by Peter Selinger 2001-2017
</metadata>
<g transform="translate(0.000000,675.000000) scale(0.100000,-0.100000)"
fill="#000000" stroke="none">
<path d="M0 3375 l0 -3375 3375 0 3375 0 0 3375 0 3375 -3375 0 -3375 0 0
-3375z m6000 5 l0 -2620 -724 0 -723 0 -21 57 c-11 32 -50 150 -86 263 -37
113 -82 252 -100 310 -30 92 -179 555 -253 785 -14 44 -30 84 -35 90 -6 7
-411 10 -1173 10 -978 0 -1165 -2 -1165 -14 0 -11 38 -248 55 -341 3 -14 23
-131 44 -260 22 -129 53 -314 70 -410 16 -96 32 -191 35 -210 3 -19 15 -87 26
-150 11 -63 20 -118 20 -123 0 -4 -273 -6 -607 -5 l-608 3 0 2618 0 2617 2622
0 2623 0 0 -2620z"/>
<path d="M1174 5475 c3 -27 8 -59 10 -70 2 -11 7 -40 11 -65 4 -25 9 -54 11
-65 7 -38 56 -320 64 -375 5 -30 34 -203 65 -385 31 -181 58 -343 61 -360 2
-16 13 -79 24 -140 29 -164 181 -1062 191 -1125 5 -30 15 -89 22 -130 l13 -75
1137 -3 c905 -2 1137 0 1137 10 0 7 -11 47 -24 88 -14 41 -54 165 -89 275 -36
110 -111 342 -167 515 -55 173 -109 340 -120 370 -10 30 -64 197 -120 370
-143 445 -316 975 -359 1105 l-36 110 -919 0 -918 0 6 -50z"/>
</g>
</svg>
