<?xml version="1.0" encoding="UTF-8"?>
<svg id="Layer_1" data-name="Layer 1" xmlns="http://www.w3.org/2000/svg" viewBox="0 0 1080 1080">
  <defs>
    <style>
      .cls-1, .cls-2 {
        stroke-width: 0px;
      }

      .cls-2 {
        fill: #fff;
      }
    </style>
  </defs>
  <path class="cls-1" d="m1080,1080H0V0h1080v1080Zm-805.75-365.3c2.16,1.19,2.39,1.44,2.62,1.44,121.7.05,243.41.14,365.11-.09,5.88-.01,8.33,1.36,10.01,6.93,6.62,21.93,13.54,43.77,20.68,65.54,8.11,24.72,16.73,49.28,24.83,74.01,9.64,29.41,19.15,58.87,28.25,88.45,1.8,5.85,4.3,7.62,10.31,7.61,71.98-.21,143.97-.13,215.95-.15,2.56,0,5.11-.23,7.45-.34V120.23H120.95c0,112,.04,223.73-.01,335.46-.08,164.85-.19,329.7-.45,494.54-.01,6.39,1.64,8.41,8.35,8.38,59.46-.28,118.92-.16,178.39-.16h8.2c-13.76-81.44-27.33-161.76-41.18-243.75Z"/>
  <path class="cls-2" d="m274.25,714.7c13.85,81.99,27.42,162.31,41.18,243.75h-8.2c-59.46,0-118.92-.12-178.39.16-6.71.03-8.36-1.99-8.35-8.38.26-164.85.37-329.7.45-494.54.05-111.73.01-223.46.01-335.46h838.49v837.87c-2.33.11-4.89.34-7.45.34-71.98.02-143.97-.06-215.95.15-6.01.02-8.51-1.75-10.31-7.61-9.09-29.58-18.61-59.04-28.25-88.45-8.1-24.73-16.72-49.28-24.83-74.01-7.14-21.77-14.06-43.61-20.68-65.54-1.68-5.56-4.12-6.94-10.01-6.93-121.7.23-243.41.13-365.11.09-.23,0-.47-.24-2.62-1.44Zm353.97-63.49c-3.78-11.99-7.07-22.64-10.5-33.24-12.73-39.35-25.45-78.71-38.27-118.03-11.7-35.88-23.63-71.69-35.28-107.59-10.84-33.41-21.43-66.9-32.18-100.34-9.55-29.72-19.24-59.4-28.69-89.16-1.41-4.44-2.51-6.91-8.43-6.89-95.73.3-191.47.21-287.43.21,0,2.99-.46,6.22.08,9.27,2.94,16.78,6.36,33.48,9.15,50.29,4.53,27.32,8.45,54.75,13.07,82.06,5.56,32.85,11.74,65.6,17.34,98.45,6.11,35.8,11.79,71.67,17.78,107.48,5.21,31.16,10.75,62.26,15.85,93.44,2.29,14,1.96,14.05,16.24,14.05h351.26Z"/>
  <path class="cls-1" d="m628.22,651.21h-351.26c-14.29,0-13.96-.05-16.24-14.05-5.1-31.18-10.63-62.28-15.85-93.44-5.99-35.82-11.68-71.69-17.78-107.48-5.6-32.85-11.79-65.59-17.34-98.45-4.62-27.31-8.54-54.74-13.07-82.06-2.79-16.81-6.21-33.5-9.15-50.29-.53-3.05-.08-6.28-.08-9.27,95.96,0,191.69.09,287.43-.21,5.91-.02,7.02,2.44,8.43,6.89,9.45,29.76,19.13,59.44,28.69,89.16,10.75,33.44,21.33,66.93,32.18,100.34,11.65,35.9,23.58,71.71,35.28,107.59,12.82,39.32,25.55,78.68,38.27,118.03,3.43,10.6,6.71,21.25,10.5,33.24Z"/>
</svg>