<svg xmlns="http://www.w3.org/2000/svg" width="512" height="307.2" viewBox="0 0 256 153.6"><path fill="#232F3E" d="M144.4 38.3h28.3v83.8h-28.3zM180.4 38.3h28.3v83.8h-28.3zM216.4 38.3h28.3v83.8h-28.3z"/><path fill="#FF9900" d="M42.1 73.1c0-14.3 13.6-25.3 31.7-25.3 10.2 0 17.4 3.1 22.9 8.2l-13.3 12.8c-2.2-2-5.4-4.4-9.6-4.4-6.9 0-12.2 5.1-12.2 11.8s5.3 11.8 12.2 11.8c4.2 0 7.4-2.4 9.6-4.4l13.3 12.8c-5.5 5.1-12.7 8.2-22.9 8.2-18.1 0-31.7-11-31.7-25.3zm64.4 38.8L120 98.4c-2.2 2.4-5.9 5.1-11.4 5.1-6.2 0-10.2-4.4-10.2-10.1V47.8h28.3v54.1h.1l16.1-16.1v-38h28.3v83.8h-27.2zm-31-50.8c-2.4-2.6-5.6-4.1-9.3-4.1-4.5 0-8.3 2-10.9 5.1v39.2c2.6 3.1 6.4 5.1 10.9 5.1 3.7 0 6.9-1.5 9.3-4.1v-41.2z"/><path fill="#232F3E" d="M244.7 121.9h-28.3V38.1h28.3v83.8zm-36 0h-28.3V38.1h28.3v83.8zm-36 0h-28.3V38.1h28.3v83.8zM0 139.1c3.3 4 8.1 6.3 14.3 6.3 6.3 0 10.9-2.9 10.9-9.1s-4-7.1-12.2-10.1c-11.2-4.2-18.8-9.3-18.8-21.2 0-11.2 8.8-18.3 22.4-18.3 8.8 0 15.2 2.9 20.1 7.8l-12.1 12.2c-2.9-2.4-6-4-9.9-4-4.5 0-7.3 2.6-7.3 6.5 0 4.5 2.9 6 10.7 9.1 10.2 4 19.9 8.3 19.9 22.2 0 12.2-9.6 19.4-24.2 19.4-10.1 0-17.1-3.3-22.4-8.8l11.5-12.1z"/></svg>