<svg width="394" height="80" viewBox="0 0 394 80" fill="none" xmlns="http://www.w3.org/2000/svg">
<path d="M63.999 4.48001L12.559 43.44V4.48001H0V74.48H10.32L65.839 33.2V74.48H76.159V4.48001H63.999Z" fill="black"/>
<path d="M164.315 4.48001H128.075L89.1149 45.6V4.48001H78.7949V74.48H89.1149L129.915 31.04V74.48H140.235V43.2L117.435 74.48H164.315L131.755 40.16L164.315 4.48001Z" fill="black"/>
<path d="M240.333 74.48H252.333L222.333 4.48001H209.613L179.613 74.48H191.613L198.333 56.72H233.613L240.333 74.48ZM202.413 47.04L216.093 14.4L229.533 47.04H202.413Z" fill="black"/>
<path d="M261.369 4.48001V74.48H338.009V64.8H271.689V4.48001H261.369Z" fill="black"/>
<path d="M393.351 4.48001H348.231V14.16H383.031V23.2H348.231V32.88H383.031V42.24H348.231V64.8H393.351V74.48H337.911V4.48001H393.351Z" fill="black"/>
</svg>