<svg xmlns="http://www.w3.org/2000/svg" viewBox="0 0 590 361">
  <path fill="#8CC84B" d="M295.1 360.5c-163 0-295-67.4-295-150.5S132.1 59.5 295.1 59.5c163 0 295 67.4 295 150.5s-132.1 150.5-295 150.5zM295.1 0C132.1 0 .1 80.8.1 180.9s132 180.9 295 180.9 295-80.8 295-180.9S458.1 0 295.1 0z"/>
  <path fill="#3C873A" d="M295.1 59.5c163 0 295 67.4 295 150.5s-132.1 150.5-295 150.5S.1 293.4.1 210S132.1 59.5 295.1 59.5z"/>
  <path fill="#FFFFFF" d="M422.8 180.9c0 12.1-1.8 23.8-5.1 34.9L283.3 104.5v151.8h-32.6V104.5L116.3 215.8c-3.3-11.1-5.1-22.8-5.1-34.9 0-18.9 4.2-36.8 11.6-53.1l139.6-80.6 139.6 80.6c7.4 16.3 11.6 34.2 11.6 53.1z"/>
</svg>